{"buffers":[{"uri":"super_opti_NKMLELON LS TOP 13209296_1.bin","byteLength":30434344},{"byteLength":19864196,"extensions":{"EXT_meshopt_compression":{"fallback":true}}}],"asset":{"version":"2.0","generator":"gltfpack 0.17"},"extensionsUsed":["KHR_mesh_quantization","EXT_meshopt_compression","KHR_texture_transform"],"extensionsRequired":["KHR_mesh_quantization","EXT_meshopt_compression"],"bufferViews":[{"buffer":0,"byteOffset":0,"byteLength":2805187},{"buffer":0,"byteOffset":2805188,"byteLength":5829261},{"buffer":0,"byteOffset":8634452,"byteLength":522092},{"buffer":0,"byteOffset":9156544,"byteLength":4578276},{"buffer":0,"byteOffset":13734820,"byteLength":1680416},{"buffer":0,"byteOffset":15415236,"byteLength":2863079},{"buffer":0,"byteOffset":18278316,"byteLength":6566113},{"buffer":0,"byteOffset":24844432,"byteLength":25629},{"buffer":0,"byteOffset":24870064,"byteLength":18814},{"buffer":0,"byteOffset":24888880,"byteLength":89694},{"buffer":0,"byteOffset":24978576,"byteLength":172638},{"buffer":1,"byteOffset":0,"byteLength":2443404,"byteStride":4,"target":34962,"extensions":{"EXT_meshopt_compression":{"buffer":0,"byteOffset":25151216,"byteLength":1173707,"byteStride":4,"mode":"ATTRIBUTES","filter":"OCTAHEDRAL","count":610851}}},{"buffer":1,"byteOffset":2443404,"byteLength":4886808,"byteStride":8,"target":34962,"extensions":{"EXT_meshopt_compression":{"buffer":0,"byteOffset":26324924,"byteLength":1319312,"byteStride":8,"mode":"ATTRIBUTES","count":610851}}},{"buffer":1,"byteOffset":7330212,"byteLength":2443404,"byteStride":4,"target":34962,"extensions":{"EXT_meshopt_compression":{"buffer":0,"byteOffset":27644236,"byteLength":1660421,"byteStride":4,"mode":"ATTRIBUTES","count":610851}}},{"buffer":1,"byteOffset":9773616,"byteLength":1955682,"target":34963,"extensions":{"EXT_meshopt_compression":{"buffer":0,"byteOffset":29304660,"byteLength":368875,"byteStride":2,"mode":"TRIANGLES","count":977841}}},{"buffer":1,"byteOffset":11729300,"byteLength":8134896,"target":34963,"extensions":{"EXT_meshopt_compression":{"buffer":0,"byteOffset":29673536,"byteLength":760807,"byteStride":4,"mode":"TRIANGLES","count":2033724}}}],"accessors":[{"bufferView":11,"byteOffset":0,"componentType":5120,"count":23223,"type":"VEC3","normalized":true},{"bufferView":12,"byteOffset":0,"componentType":5123,"count":23223,"type":"VEC3","min":[0,0,445],"max":[13465,16170,5030]},{"bufferView":13,"byteOffset":0,"componentType":5123,"count":23223,"type":"VEC2"},{"bufferView":14,"byteOffset":0,"componentType":5123,"count":131535,"type":"SCALAR"},{"bufferView":11,"byteOffset":92892,"componentType":5120,"count":17784,"type":"VEC3","normalized":true},{"bufferView":12,"byteOffset":185784,"componentType":5123,"count":17784,"type":"VEC3","min":[18,18,463],"max":[13447,16153,5020]},{"bufferView":13,"byteOffset":92892,"componentType":5123,"count":17784,"type":"VEC2"},{"bufferView":14,"byteOffset":263070,"componentType":5123,"count":104427,"type":"SCALAR"},{"bufferView":11,"byteOffset":164028,"componentType":5120,"count":3274,"type":"VEC3","normalized":true},{"bufferView":12,"byteOffset":328056,"componentType":5123,"count":3274,"type":"VEC3","min":[4336,14657,1448],"max":[9073,16383,4891]},{"bufferView":13,"byteOffset":164028,"componentType":5123,"count":3274,"type":"VEC2"},{"bufferView":14,"byteOffset":471924,"componentType":5123,"count":16920,"type":"SCALAR"},{"bufferView":11,"byteOffset":177124,"componentType":5120,"count":7737,"type":"VEC3","normalized":true},{"bufferView":12,"byteOffset":354248,"componentType":5123,"count":7737,"type":"VEC3","min":[2133,360,0],"max":[11199,16186,3619]},{"bufferView":13,"byteOffset":177124,"componentType":5123,"count":7737,"type":"VEC2"},{"bufferView":14,"byteOffset":505764,"componentType":5123,"count":42831,"type":"SCALAR"},{"bufferView":11,"byteOffset":208072,"componentType":5120,"count":5210,"type":"VEC3","normalized":true},{"bufferView":12,"byteOffset":416144,"componentType":5123,"count":5210,"type":"VEC3","min":[2151,375,18],"max":[11181,16184,3610]},{"bufferView":13,"byteOffset":208072,"componentType":5123,"count":5210,"type":"VEC2"},{"bufferView":14,"byteOffset":591426,"componentType":5123,"count":30195,"type":"SCALAR"},{"bufferView":11,"byteOffset":228912,"componentType":5120,"count":4942,"type":"VEC3","normalized":true},{"bufferView":12,"byteOffset":457824,"componentType":5123,"count":4942,"type":"VEC3","min":[2229,10501,2559],"max":[11176,16153,6177]},{"bufferView":13,"byteOffset":228912,"componentType":5123,"count":4942,"type":"VEC2"},{"bufferView":14,"byteOffset":651816,"componentType":5123,"count":27144,"type":"SCALAR"},{"bufferView":11,"byteOffset":248680,"componentType":5120,"count":3227,"type":"VEC3","normalized":true},{"bufferView":12,"byteOffset":497360,"componentType":5123,"count":3227,"type":"VEC3","min":[2243,10511,2562],"max":[11164,16136,6159]},{"bufferView":13,"byteOffset":248680,"componentType":5123,"count":3227,"type":"VEC2"},{"bufferView":14,"byteOffset":706104,"componentType":5123,"count":18648,"type":"SCALAR"},{"bufferView":11,"byteOffset":261588,"componentType":5120,"count":3895,"type":"VEC3","normalized":true},{"bufferView":12,"byteOffset":523176,"componentType":5123,"count":3895,"type":"VEC3","min":[3165,6950,4586],"max":[10298,14239,6751]},{"bufferView":13,"byteOffset":261588,"componentType":5123,"count":3895,"type":"VEC2"},{"bufferView":14,"byteOffset":743400,"componentType":5123,"count":21636,"type":"SCALAR"},{"bufferView":11,"byteOffset":277168,"componentType":5120,"count":263,"type":"VEC3","normalized":true},{"bufferView":12,"byteOffset":554336,"componentType":5123,"count":263,"type":"VEC3","min":[6049,14102,1038],"max":[7322,15662,1352]},{"bufferView":13,"byteOffset":277168,"componentType":5123,"count":263,"type":"VEC2"},{"bufferView":14,"byteOffset":786672,"componentType":5123,"count":1236,"type":"SCALAR"},{"bufferView":11,"byteOffset":278220,"componentType":5120,"count":5907,"type":"VEC3","normalized":true},{"bufferView":12,"byteOffset":556440,"componentType":5123,"count":5907,"type":"VEC3","min":[2229,5337,244],"max":[11142,10803,3344]},{"bufferView":13,"byteOffset":278220,"componentType":5123,"count":5907,"type":"VEC2"},{"bufferView":14,"byteOffset":789144,"componentType":5123,"count":33324,"type":"SCALAR"},{"bufferView":11,"byteOffset":301848,"componentType":5120,"count":4367,"type":"VEC3","normalized":true},{"bufferView":12,"byteOffset":603696,"componentType":5123,"count":4367,"type":"VEC3","min":[2247,5347,262],"max":[11124,10792,3336]},{"bufferView":13,"byteOffset":301848,"componentType":5123,"count":4367,"type":"VEC2"},{"bufferView":14,"byteOffset":855792,"componentType":5123,"count":25548,"type":"SCALAR"},{"bufferView":11,"byteOffset":319316,"componentType":5120,"count":5914,"type":"VEC3","normalized":true},{"bufferView":12,"byteOffset":638632,"componentType":5123,"count":5914,"type":"VEC3","min":[2252,5398,2825],"max":[11144,11114,6872]},{"bufferView":13,"byteOffset":319316,"componentType":5123,"count":5914,"type":"VEC2"},{"bufferView":14,"byteOffset":906888,"componentType":5123,"count":33366,"type":"SCALAR"},{"bufferView":11,"byteOffset":342972,"componentType":5120,"count":4374,"type":"VEC3","normalized":true},{"bufferView":12,"byteOffset":685944,"componentType":5123,"count":4374,"type":"VEC3","min":[2270,5403,2833],"max":[11126,11103,6854]},{"bufferView":13,"byteOffset":342972,"componentType":5123,"count":4374,"type":"VEC2"},{"bufferView":14,"byteOffset":973620,"componentType":5123,"count":25590,"type":"SCALAR"},{"bufferView":11,"byteOffset":360468,"componentType":5120,"count":2126,"type":"VEC3","normalized":true},{"bufferView":12,"byteOffset":720936,"componentType":5123,"count":2126,"type":"VEC3","min":[3281,6950,5210],"max":[10220,11110,6751]},{"bufferView":13,"byteOffset":360468,"componentType":5123,"count":2126,"type":"VEC2"},{"bufferView":14,"byteOffset":1024800,"componentType":5123,"count":11835,"type":"SCALAR"},{"bufferView":11,"byteOffset":368972,"componentType":5120,"count":6422,"type":"VEC3","normalized":true},{"bufferView":12,"byteOffset":737944,"componentType":5123,"count":6422,"type":"VEC3","min":[2136,386,3164],"max":[11210,5766,7329]},{"bufferView":13,"byteOffset":368972,"componentType":5123,"count":6422,"type":"VEC2"},{"bufferView":14,"byteOffset":1048470,"componentType":5123,"count":36198,"type":"SCALAR"},{"bufferView":11,"byteOffset":394660,"componentType":5120,"count":4791,"type":"VEC3","normalized":true},{"bufferView":12,"byteOffset":789320,"componentType":5123,"count":4791,"type":"VEC3","min":[2154,404,3171],"max":[11192,5756,7311]},{"bufferView":13,"byteOffset":394660,"componentType":5123,"count":4791,"type":"VEC2"},{"bufferView":14,"byteOffset":1120866,"componentType":5123,"count":28062,"type":"SCALAR"},{"bufferView":11,"byteOffset":413824,"componentType":5120,"count":60030,"type":"VEC3","normalized":true},{"bufferView":12,"byteOffset":827648,"componentType":5123,"count":60030,"type":"VEC3","min":[183,592,2937],"max":[13340,1117,4892]},{"bufferView":13,"byteOffset":413824,"componentType":5123,"count":60030,"type":"VEC2"},{"bufferView":14,"byteOffset":1176990,"componentType":5123,"count":283968,"type":"SCALAR"},{"bufferView":11,"byteOffset":653944,"componentType":5120,"count":274055,"type":"VEC3","normalized":true},{"bufferView":12,"byteOffset":1307888,"componentType":5123,"count":274055,"type":"VEC3","min":[148,586,41],"max":[13374,1414,7269]},{"bufferView":13,"byteOffset":653944,"componentType":5123,"count":274055,"type":"VEC2"},{"bufferView":15,"byteOffset":0,"componentType":5125,"count":1246392,"type":"SCALAR"},{"bufferView":11,"byteOffset":1750164,"componentType":5120,"count":66356,"type":"VEC3","normalized":true},{"bufferView":12,"byteOffset":3500328,"componentType":5123,"count":66356,"type":"VEC3","min":[129,494,1343],"max":[13390,16138,4972]},{"bufferView":13,"byteOffset":1750164,"componentType":5123,"count":66356,"type":"VEC2"},{"bufferView":15,"byteOffset":4985568,"componentType":5125,"count":341796,"type":"SCALAR"},{"bufferView":11,"byteOffset":2015588,"componentType":5120,"count":20458,"type":"VEC3","normalized":true},{"bufferView":12,"byteOffset":4031176,"componentType":5123,"count":20458,"type":"VEC3","min":[4150,15701,1424],"max":[9249,16127,2620]},{"bufferView":13,"byteOffset":2015588,"componentType":5123,"count":20458,"type":"VEC2"},{"bufferView":14,"byteOffset":1744926,"componentType":5123,"count":105378,"type":"SCALAR"},{"bufferView":11,"byteOffset":2097420,"componentType":5120,"count":86496,"type":"VEC3","normalized":true},{"bufferView":12,"byteOffset":4194840,"componentType":5123,"count":86496,"type":"VEC3","min":[2294,863,2],"max":[11212,1387,7310]},{"bufferView":13,"byteOffset":2097420,"componentType":5123,"count":86496,"type":"VEC2"},{"bufferView":15,"byteOffset":6352752,"componentType":5125,"count":445536,"type":"SCALAR"}],"samplers":[{"magFilter":9729,"minFilter":9987}],"images":[{"bufferView":0,"mimeType":"image/jpeg"},{"bufferView":1,"mimeType":"image/jpeg"},{"bufferView":2,"mimeType":"image/jpeg"},{"bufferView":3,"mimeType":"image/jpeg"},{"bufferView":4,"mimeType":"image/png"},{"bufferView":5,"mimeType":"image/jpeg"},{"bufferView":6,"mimeType":"image/jpeg"},{"bufferView":7,"mimeType":"image/png"},{"bufferView":8,"mimeType":"image/png"},{"bufferView":9,"mimeType":"image/jpeg"},{"bufferView":10,"mimeType":"image/jpeg"}],"textures":[{"sampler":0,"source":0},{"sampler":0,"source":1},{"sampler":0,"source":2},{"sampler":0,"source":3},{"sampler":0,"source":4},{"sampler":0,"source":5},{"sampler":0,"source":6},{"sampler":0,"source":7},{"sampler":0,"source":8},{"sampler":0,"source":9},{"sampler":0,"source":10}],"materials":[{"name":"NI-JER-SINGLE-95 COT 5 EA-160GSM Copy 1_FRONT_2600","pbrMetallicRoughness":{"baseColorFactor":[0.215764388,0.20109573,0.197516426,1],"baseColorTexture":{"index":0,"extensions":{"KHR_texture_transform":{"offset":[-203.257812,-249.782349],"scale":[0.00158358319,0.00170888251]}}},"metallicFactor":0,"roughnessFactor":0.699999988},"normalTexture":{"index":1,"scale":0.300000012,"extensions":{"KHR_texture_transform":{"offset":[-203.257812,-249.782349],"scale":[0.00158358319,0.00170888251]}}}},{"name":"NI-JER-SINGLE-95 COT 5 EA-160GSM Copy 1_BACK_2600","pbrMetallicRoughness":{"baseColorFactor":[0.215764388,0.20109573,0.197516426,1],"baseColorTexture":{"index":2,"extensions":{"KHR_texture_transform":{"offset":[-202.726257,-249.268677],"scale":[0.00147957809,0.00219485955]}}},"metallicFactor":0,"metallicRoughnessTexture":{"index":4,"extensions":{"KHR_texture_transform":{"offset":[-202.726257,-249.268677],"scale":[0.00147957809,0.00219485955]}}}},"normalTexture":{"index":3,"scale":0.300000012,"extensions":{"KHR_texture_transform":{"offset":[-202.726257,-249.268677],"scale":[0.00147957809,0.00219485955]}}}},{"name":"RIB-1x1-NECK_FRONT_2668","pbrMetallicRoughness":{"baseColorFactor":[0.215764388,0.20109573,0.197516426,1],"baseColorTexture":{"index":5,"extensions":{"KHR_texture_transform":{"offset":[-183.849747,-11.750246],"scale":[0.000847000978,6.00946878e-05]}}},"metallicFactor":0,"roughnessFactor":0.699999988},"normalTexture":{"index":6,"scale":0.200000003,"extensions":{"KHR_texture_transform":{"offset":[-183.849747,-11.750246],"scale":[0.000847000978,6.00946878e-05]}}}},{"name":"NI-JER-SINGLE-95 COT 5 EA-160GSM Copy 2_FRONT_2647","pbrMetallicRoughness":{"baseColorFactor":[0.293216169,0.399293333,0.645555258,1],"baseColorTexture":{"index":0,"extensions":{"KHR_texture_transform":{"offset":[-185.467194,-4.54003906],"scale":[0.00144497643,0.00094348687]}}},"metallicFactor":0,"roughnessFactor":0.699999988},"normalTexture":{"index":1,"scale":0.300000012,"extensions":{"KHR_texture_transform":{"offset":[-185.467194,-4.54003906],"scale":[0.00144497643,0.00094348687]}}}},{"name":"NI-JER-SINGLE-95 COT 5 EA-160GSM Copy 2_BACK_2647","pbrMetallicRoughness":{"baseColorFactor":[0.293216169,0.399293333,0.645555258,1],"baseColorTexture":{"index":2,"extensions":{"KHR_texture_transform":{"offset":[-184.9272,-4],"scale":[0.00134967361,0.00120960886]}}},"metallicFactor":0,"metallicRoughnessTexture":{"index":4,"extensions":{"KHR_texture_transform":{"offset":[-184.9272,-4],"scale":[0.00134967361,0.00120960886]}}}},"normalTexture":{"index":3,"scale":0.300000012,"extensions":{"KHR_texture_transform":{"offset":[-184.9272,-4],"scale":[0.00134967361,0.00120960886]}}}},{"name":"NI-JER-SINGLE-95 COT 5 EA-160GSM Copy 1_FRONT_2600","pbrMetallicRoughness":{"baseColorFactor":[0.215764388,0.20109573,0.197516426,1],"baseColorTexture":{"index":0,"extensions":{"KHR_texture_transform":{"offset":[-186.044724,-296.882721],"scale":[0.00143797568,0.000651747105]}}},"metallicFactor":0,"roughnessFactor":0.699999988},"normalTexture":{"index":1,"scale":0.300000012,"extensions":{"KHR_texture_transform":{"offset":[-186.044724,-296.882721],"scale":[0.00143797568,0.000651747105]}}}},{"name":"NI-JER-SINGLE-95 COT 5 EA-160GSM Copy 1_BACK_2600","pbrMetallicRoughness":{"baseColorFactor":[0.215764388,0.20109573,0.197516426,1],"baseColorTexture":{"index":2,"extensions":{"KHR_texture_transform":{"offset":[-185.411407,-296.203033],"scale":[0.00134311523,0.000834350416]}}},"metallicFactor":0,"metallicRoughnessTexture":{"index":4,"extensions":{"KHR_texture_transform":{"offset":[-185.411407,-296.203033],"scale":[0.00134311523,0.000834350416]}}}},"normalTexture":{"index":3,"scale":0.300000012,"extensions":{"KHR_texture_transform":{"offset":[-185.411407,-296.203033],"scale":[0.00134311523,0.000834350416]}}}},{"name":"PT_FABRIC_FRONT_8927","pbrMetallicRoughness":{"baseColorFactor":[0.867135525,0.835527778,0.804559112,1],"baseColorTexture":{"index":7,"extensions":{"KHR_texture_transform":{"offset":[-108.101288,-264.201447],"scale":[0.000244200259,0.000244200259]}}},"metallicFactor":0,"roughnessFactor":0.5},"alphaMode":"MASK"},{"name":"PT_FABRIC_FRONT_8973","pbrMetallicRoughness":{"baseColorFactor":[0.907547176,0.915750146,0.875137568,1],"baseColorTexture":{"index":8,"extensions":{"KHR_texture_transform":{"offset":[-19.6414509,-226.233475],"scale":[0.000244200171,0.000244200462]}}},"metallicFactor":0,"roughnessFactor":0.5},"alphaMode":"MASK"},{"name":"NI-JER-SINGLE-95 COT 5 EA-160GSM_FRONT_2626","pbrMetallicRoughness":{"baseColorFactor":[0.0265486818,0.089193508,0.263174742,1],"baseColorTexture":{"index":0,"extensions":{"KHR_texture_transform":{"offset":[-185.053589,-59.2699585],"scale":[0.00144175452,0.000549941498]}}},"metallicFactor":0,"roughnessFactor":0.699999988},"normalTexture":{"index":1,"scale":0.300000012,"extensions":{"KHR_texture_transform":{"offset":[-185.053589,-59.2699585],"scale":[0.00144175452,0.000549941498]}}}},{"name":"NI-JER-SINGLE-95 COT 5 EA-160GSM_BACK_2626","pbrMetallicRoughness":{"baseColorFactor":[0.0265486818,0.089193508,0.263174742,1],"baseColorTexture":{"index":2,"extensions":{"KHR_texture_transform":{"offset":[-184.513596,-58.7299805],"scale":[0.00134665507,0.000703079859]}}},"metallicFactor":0,"metallicRoughnessTexture":{"index":4,"extensions":{"KHR_texture_transform":{"offset":[-184.513596,-58.7299805],"scale":[0.00134665507,0.000703079859]}}}},"normalTexture":{"index":3,"scale":0.300000012,"extensions":{"KHR_texture_transform":{"offset":[-184.513596,-58.7299805],"scale":[0.00134665507,0.000703079859]}}}},{"name":"NI-JER-SINGLE-95 COT 5 EA-160GSM_FRONT_2626","pbrMetallicRoughness":{"baseColorFactor":[0.0265486818,0.089193508,0.263174742,1],"baseColorTexture":{"index":0,"extensions":{"KHR_texture_transform":{"offset":[-186.58284,-107.065018],"scale":[0.00144216779,0.000549062155]}}},"metallicFactor":0,"roughnessFactor":0.699999988},"normalTexture":{"index":1,"scale":0.300000012,"extensions":{"KHR_texture_transform":{"offset":[-186.58284,-107.065018],"scale":[0.00144216779,0.000549062155]}}}},{"name":"NI-JER-SINGLE-95 COT 5 EA-160GSM_BACK_2626","pbrMetallicRoughness":{"baseColorFactor":[0.0265486818,0.089193508,0.263174742,1],"baseColorTexture":{"index":2,"extensions":{"KHR_texture_transform":{"offset":[-185.949524,-106.331314],"scale":[0.0013470425,0.000701947953]}}},"metallicFactor":0,"metallicRoughnessTexture":{"index":4,"extensions":{"KHR_texture_transform":{"offset":[-185.949524,-106.331314],"scale":[0.0013470425,0.000701947953]}}}},"normalTexture":{"index":3,"scale":0.300000012,"extensions":{"KHR_texture_transform":{"offset":[-185.949524,-106.331314],"scale":[0.0013470425,0.000701947953]}}}},{"name":"PT_FABRIC_FRONT_8997","pbrMetallicRoughness":{"baseColorFactor":[0.867135525,0.835527778,0.804559112,1],"baseColorTexture":{"index":7,"extensions":{"KHR_texture_transform":{"offset":[-108.101288,-166.879791],"scale":[0.000244200259,0.000133557842]}}},"metallicFactor":0,"roughnessFactor":0.5},"alphaMode":"MASK"},{"name":"NI-JER-SINGLE-95 COT 5 EA-160GSM Copy 2_FRONT_2647","pbrMetallicRoughness":{"baseColorFactor":[0.293216169,0.399293333,0.645555258,1],"baseColorTexture":{"index":0,"extensions":{"KHR_texture_transform":{"offset":[-187.08815,52.6761131],"scale":[0.00144610461,0.000584086927]}}},"metallicFactor":0,"roughnessFactor":0.699999988},"normalTexture":{"index":1,"scale":0.300000012,"extensions":{"KHR_texture_transform":{"offset":[-187.08815,52.6761131],"scale":[0.00144610461,0.000584086927]}}}},{"name":"NI-JER-SINGLE-95 COT 5 EA-160GSM Copy 2_BACK_2647","pbrMetallicRoughness":{"baseColorFactor":[0.293216169,0.399293333,0.645555258,1],"baseColorTexture":{"index":2,"extensions":{"KHR_texture_transform":{"offset":[-186.454834,53.4098167],"scale":[0.00135073019,0.000747028156]}}},"metallicFactor":0,"metallicRoughnessTexture":{"index":4,"extensions":{"KHR_texture_transform":{"offset":[-186.454834,53.4098167],"scale":[0.00135073019,0.000747028156]}}}},"normalTexture":{"index":3,"scale":0.300000012,"extensions":{"KHR_texture_transform":{"offset":[-186.454834,53.4098167],"scale":[0.00135073019,0.000747028156]}}}},{"name":"Material3805","pbrMetallicRoughness":{"baseColorFactor":[0.215764388,0.20109573,0.197516426,1],"baseColorTexture":{"index":9,"extensions":{"KHR_texture_transform":{"offset":[0.0125000002,0.386300027],"scale":[0.000237777771,0.000146544568]}}},"metallicFactor":0,"roughnessFactor":0.5}},{"name":"Material3838","pbrMetallicRoughness":{"baseColorFactor":[0.293216169,0.399293333,0.645555258,1],"baseColorTexture":{"index":9,"extensions":{"KHR_texture_transform":{"offset":[0.00760000013,0.0282999873],"scale":[0.000240122099,0.000233968254]}}},"metallicFactor":0,"roughnessFactor":0.5}},{"name":"Material3992","pbrMetallicRoughness":{"baseColorFactor":[0.215764388,0.20109573,0.197516426,1],"baseColorTexture":{"index":10,"extensions":{"KHR_texture_transform":{"offset":[0.0870369971,0.415623009],"scale":[0.00020169132,4.02236874e-05]}}},"metallicFactor":0,"roughnessFactor":0.5}},{"name":"Material3097","pbrMetallicRoughness":{"baseColorFactor":[0.867135525,0.835527778,0.804559112,1],"baseColorTexture":{"index":10,"extensions":{"KHR_texture_transform":{"offset":[0.0870369971,0.415623009],"scale":[0.00020169132,4.02236874e-05]}}},"metallicFactor":0,"roughnessFactor":0.5}},{"name":"Material2924","pbrMetallicRoughness":{"baseColorFactor":[0.293216169,0.399293333,0.645555258,1],"baseColorTexture":{"index":10,"extensions":{"KHR_texture_transform":{"offset":[0.0870369971,0.415623009],"scale":[0.00020169132,4.02236874e-05]}}},"metallicFactor":0,"roughnessFactor":0.5}}],"meshes":[{"primitives":[{"attributes":{"NORMAL":0,"POSITION":1,"TEXCOORD_0":2},"indices":3,"material":0},{"attributes":{"NORMAL":4,"POSITION":5,"TEXCOORD_0":6},"indices":7,"material":1},{"attributes":{"NORMAL":8,"POSITION":9,"TEXCOORD_0":10},"indices":11,"material":2},{"attributes":{"NORMAL":12,"POSITION":13,"TEXCOORD_0":14},"indices":15,"material":3},{"attributes":{"NORMAL":16,"POSITION":17,"TEXCOORD_0":18},"indices":19,"material":4},{"attributes":{"NORMAL":20,"POSITION":21,"TEXCOORD_0":22},"indices":23,"material":5},{"attributes":{"NORMAL":24,"POSITION":25,"TEXCOORD_0":26},"indices":27,"material":6},{"attributes":{"NORMAL":28,"POSITION":29,"TEXCOORD_0":30},"indices":31,"material":7},{"attributes":{"NORMAL":32,"POSITION":33,"TEXCOORD_0":34},"indices":35,"material":8},{"attributes":{"NORMAL":36,"POSITION":37,"TEXCOORD_0":38},"indices":39,"material":9},{"attributes":{"NORMAL":40,"POSITION":41,"TEXCOORD_0":42},"indices":43,"material":10},{"attributes":{"NORMAL":44,"POSITION":45,"TEXCOORD_0":46},"indices":47,"material":11},{"attributes":{"NORMAL":48,"POSITION":49,"TEXCOORD_0":50},"indices":51,"material":12},{"attributes":{"NORMAL":52,"POSITION":53,"TEXCOORD_0":54},"indices":55,"material":13},{"attributes":{"NORMAL":56,"POSITION":57,"TEXCOORD_0":58},"indices":59,"material":14},{"attributes":{"NORMAL":60,"POSITION":61,"TEXCOORD_0":62},"indices":63,"material":15},{"attributes":{"NORMAL":64,"POSITION":65,"TEXCOORD_0":66},"indices":67,"material":16},{"attributes":{"NORMAL":68,"POSITION":69,"TEXCOORD_0":70},"indices":71,"material":17},{"attributes":{"NORMAL":72,"POSITION":73,"TEXCOORD_0":74},"indices":75,"material":18},{"attributes":{"NORMAL":76,"POSITION":77,"TEXCOORD_0":78},"indices":79,"material":19},{"attributes":{"NORMAL":80,"POSITION":81,"TEXCOORD_0":82},"indices":83,"material":20}]}],"nodes":[{"mesh":0,"translation":[-0.201425999,0.587143302,-0.137883157],"scale":[2.98692285e-05,2.98692285e-05,2.98692285e-05]}],"scenes":[{"nodes":[0]}],"scene":0}